<?xml version="1.0" encoding="UTF-8" standalone="no"?>
<svg
   xmlns="http://www.w3.org/2000/svg"
   height="100"
   width="100">


  <path
     d="M 14.291224,2.3457403 C 12.546551,3.3457067 11.570623,5.2934932 11.814107,7.2896222 L 19.37022,88.377193 c 0.48303,3.937156 5.138355,5.771428 8.177221,3.221956 L 41.762088,79.668861 48.912479,92.0537 c 4.111755,7.121766 12.368609,7.870086 19.490381,3.758326 7.121772,-4.111752 10.602136,-11.636557 6.490381,-18.758326 l -7.125,-12.340862 17.163531,-6.244548 c 3.72734,-1.356999 4.466478,-6.305765 1.298315,-8.692659 L 19.784246,2.6880601 C 18.186367,1.4859606 16.025987,1.3513284 14.291224,2.3457403 Z m 8.87807,15.4085177 49.684761,34.466686 -19.712795,7.172845 0.09173,0.143251 13,22.51666 c 1.428243,2.47379 -0.356338,3.669834 -2.830127,5.098077 -2.47379,1.428243 -4.401884,2.375713 -5.830127,-0.09808 l -13,-22.51666 -0.102841,-0.197726 -16.293924,13.676535 z"
     style="color:#000000;font-style:normal;font-variant:normal;font-weight:normal;font-stretch:normal;font-size:medium;line-height:normal;font-family:sans-serif;font-variant-ligatures:normal;font-variant-position:normal;font-variant-caps:normal;font-variant-numeric:normal;font-variant-alternates:normal;font-variant-east-asian:normal;font-feature-settings:normal;font-variation-settings:normal;text-indent:0;text-align:start;text-decoration:none;text-decoration-line:none;text-decoration-style:solid;text-decoration-color:#000000;letter-spacing:normal;word-spacing:normal;text-transform:none;writing-mode:lr-tb;direction:ltr;text-orientation:mixed;dominant-baseline:auto;baseline-shift:baseline;text-anchor:start;white-space:normal;shape-padding:0;shape-margin:0;inline-size:0;clip-rule:nonzero;display:inline;overflow:visible;visibility:visible;isolation:auto;mix-blend-mode:normal;color-interpolation:sRGB;color-interpolation-filters:linearRGB;solid-color:#000000;solid-opacity:1;vector-effect:none;fill:rgb(255, 255, 255);fill-opacity:1;fill-rule:nonzero;stroke:none;stroke-width:10;stroke-linecap:round;stroke-linejoin:round;stroke-miterlimit:4;stroke-dasharray:none;stroke-dashoffset:20;stroke-opacity:1;color-rendering:auto;image-rendering:auto;shape-rendering:auto;text-rendering:auto;enable-background:accumulate;stop-color:#000000"
  />
</svg>
