<?xml version="1.0" encoding="UTF-8" standalone="no"?>
<svg
   xmlns="http://www.w3.org/2000/svg"
   height="100"
   width="100">

  <path
     d="M 50 0 A 18.955294 18.955294 0 0 0 31.044922 18.957031 A 18.955294 18.955294 0 0 0 47.5 37.746094 L 47.5 97.5 A 2.5 2.5 0 0 0 50 100 A 2.5 2.5 0 0 0 52.5 97.5 L 52.5 37.746094 A 18.955294 18.955294 0 0 0 68.955078 18.957031 A 18.955294 18.955294 0 0 0 50 0 z M 45.167969 8.5488281 A 5.9467587 5.9467587 0 0 1 51.115234 14.496094 A 5.9467587 5.9467587 0 0 1 45.167969 20.443359 A 5.9467587 5.9467587 0 0 1 39.220703 14.496094 A 5.9467587 5.9467587 0 0 1 45.167969 8.5488281 z "
     style="color:#000000;overflow:visible;fill:rgb(255, 255, 255);stroke:none;stroke-width:7;stroke-linecap:round;stroke-linejoin:round;stroke-dashoffset:188.976"
  />
</svg>
